<svg width="342" height="340" viewBox="0 0 342 340" fill="none" xmlns="http://www.w3.org/2000/svg"><path d="M237.337 296.736L90.54 289.028c-15.6-.817-27.587-12.069-26.77-25.127l12.345-198.35c.803-13.058 14.11-22.98 29.71-22.15l146.796 7.708c15.601.817 27.587 12.07 26.77 25.127l-12.345 198.351c-.803 13.058-14.109 22.979-29.709 22.149z" fill="#EFFAF3"/><mask id="a" style="mask-type:alpha" maskUnits="userSpaceOnUse" x="-18" y="41" width="379" height="258"><path d="M283.545 298.772L28.647 286.474c-27.088-1.305-47.71-12.93-46.056-25.96L7.61 62.581c1.63-13.03 24.926-22.534 52.014-21.216l254.898 12.298c27.088 1.305 47.711 12.93 46.056 25.96L335.56 277.556c-1.631 13.03-24.926 22.534-52.014 21.216z" fill="#EFFAF3"/></mask><g clip-path="url(#clip0_1871_90171)" mask="url(#a)"><path d="M241.812 468.037a.843.843 0 01-.451.843.836.836 0 01-.324.091l-64.971 6.96a.87.87 0 01-.96-.857l-.62-67.919-.116-11.6s-11.496 77.13-14.526 79.894c-2.288 2.127-52-4.594-64.245-6.278a2.379 2.379 0 01-2-1.8 2.382 2.382 0 01-.037-.946c3.78-21.773 31.587-181.61 35.021-191.764 3.666-10.936 2.697-67.019 2.697-67.019l89.057 20.301s1.735 16.534 3.93 39.119c2.767 28.421 6.337 66.422 8.212 93.228 3.069 44.767 8.6 100.309 9.333 107.747z" fill="#F26A2B"/><path d="M241.81 468.036a.848.848 0 01-.188.633.828.828 0 01-.587.302l-64.971 6.96a.87.87 0 01-.96-.858l-1.364-74.76c10.259-40.001 16.968-119.141 16.968-119.141l33.585-14.191c2.768 28.421 6.338 66.422 8.213 93.228 3.04 44.848 8.571 100.389 9.304 107.827z" fill="#F26A2B"/><path d="M212.759 272.491a.701.701 0 01-.667-.581l-3.52-21.2a.644.644 0 01.108-.509.647.647 0 01.448-.267.68.68 0 01.775.556l3.521 21.2a.644.644 0 01-.109.509.645.645 0 01-.447.266l-.109.026zm-11.908 5.261a.704.704 0 01-.668-.554l-6.352-33.987a.67.67 0 01.108-.507.68.68 0 01.942-.175c.148.102.25.258.282.435l6.459 34.124a.655.655 0 01-.529.776l-.242-.112zM148.07 476.077c-.487-.008-.75-.447-.663-.797 23.571-118.644 37.684-231.306 37.812-232.36a.673.673 0 011.203-.322.705.705 0 01.148.508c-.02 1.111-14.243 113.826-37.841 232.523a.681.681 0 01-.659.448zm-12.325-1.766a.735.735 0 01-.634-.513.742.742 0 01-.029-.285l38.11-230.918a.706.706 0 01.769-.555.673.673 0 01.552.527c.019.088.02.18.003.268l-38.164 230.891a.702.702 0 01-.607.585zm-14.962-1.326a.667.667 0 01-.517-.244.68.68 0 01-.146-.553l40.129-222.591a.683.683 0 01.795-.554.685.685 0 01.555.795l-40.155 222.59a.648.648 0 01-.661.557zm18.92-205.141a.652.652 0 01-.615-.445.677.677 0 01.422-.859c15.375-5.143 13.848-16.606 13.85-16.741a.64.64 0 01.12-.492.658.658 0 01.191-.173.662.662 0 01.244-.084.644.644 0 01.51.108.66.66 0 01.266.448s1.778 12.632-14.662 18.217l-.326.021zm59.07-113.941s-.026-72.325-25.551-75.413c-25.524-3.088-28.883 14.872-28.883 14.872s-6.434 2.16-7.881 11.835c-1.448 9.675-2.77 48.482-2.77 48.482l57.694 4.345 7.391-4.121z" fill="#000"/><path d="M210.7 244.001s-47.636 4.4-48.435-2.416c-1.887-15.588-12.744-97.402-12.744-97.402l5.617-10.955 21.36-.401s14.489 5.003 24.866 33.669c10.377 28.667 9.336 77.505 9.336 77.505z" fill="#000"/><path d="M172.752 251.989s-17.411-113.582-16.724-114.111c1.1-.929.087-4.822.087-4.822s-22.452 5.313-29.862 13.553c-5.528 5.998.084 109.748 2.628 111.392 2.545 1.645 43.871-6.012 43.871-6.012zm29.583.533s-6.02-47.963-15.235-82.462c-7.617-28.481-11.28-37.246-11.28-37.246s12.532 2.339 17.219 3.887c9.671 3.182 26.351 41.473 28.96 65.15 2.608 23.676 4.549 48.343 3.284 49.35-1.264 1.006-22.948 1.321-22.948 1.321z" fill="#5FCF86"/><path d="M56.536 185.405s-4.52-9.268-8.331-11.342c-3.81-2.074-16.821-4.909-18.017-1.706-1.196 3.203 7.137 8.474 7.137 8.474a62.742 62.742 0 00-16.893 5.116c-9.86 4.348-9.128 7.342-9.128 7.342s-7.136 1.985-7.28 5.451c-.143 3.466 6.847 5.028 6.847 5.028s-12.112 6.014-6.422 9.016 20.387 2.481 31.463-.111a96.797 96.797 0 0014.872-4.285l5.752-22.983z" fill="#F5C2A2"/><path d="M18.809 203.938a.604.604 0 01-.353-.006.679.679 0 01-.2-.925l11.148-17.115a.684.684 0 01.703-.3.7.7 0 01.44.288.687.687 0 01.008.764L19.41 203.732a.647.647 0 01-.6.206zm26.253-11.639c-4.01-.072-10.44-1.137-11.904-7.097a.679.679 0 01.991-.655.676.676 0 01.315.353c1.818 7.403 13.443 5.905 13.687 5.91a.64.64 0 01.491.119.652.652 0 01.257.436.675.675 0 01-.328.689.678.678 0 01-.255.087c-1.08.131-2.167.183-3.254.158z" fill="#000"/><path d="M286.758 168.874s4.847-8.855 8.674-10.683c3.827-1.828 16.876-4.194 17.957-1.031 1.081 3.162-7.406 7.996-7.406 7.996a62.74 62.74 0 0116.566 5.5c9.646 4.564 8.808 7.475 8.808 7.475s7.006 2.186 7.027 5.546c.021 3.361-6.967 4.671-6.967 4.671s11.81 6.256 6.044 8.97c-5.767 2.715-20.327 1.694-31.195-1.212a98 98 0 01-14.603-4.68l-4.905-22.552z" fill="#F5C2A2"/><path d="M322.847 187.38a.67.67 0 01-.563-.336l-10.687-17.507a.654.654 0 01.014-.741.648.648 0 01.192-.177.702.702 0 01.945.234l10.687 17.48a.702.702 0 01-.207.945.89.89 0 01-.381.102zm-26.278-12.612c-1.815-.033-3.139-.247-3.301-.25a.674.674 0 01-.555-.795.642.642 0 01.264-.444.648.648 0 01.505-.112c.135.003 12.023 1.924 14.134-5.409a.685.685 0 011.26-.146c.089.16.11.347.061.523-1.705 5.876-8.305 6.706-12.368 6.633z" fill="#000"/><path d="M156.144 133.002s-20.744 2.336-29.89 13.607c-9.145 11.27-27.403 39.557-31.06 43.989-3.296 4.006-35.822-13.597-41.885-17.012a.841.841 0 00-1.23.601c-1.62 7.179-10.181 44.745-9.332 47.226.85 2.481 42.831 29.196 67.689 21.135 24.859-8.061 34.29-32.225 34.29-32.225l11.418-77.321z" fill="#5FCF86"/><path d="M100.437 204.812a2.708 2.708 0 01-1.32-.376c-3.595-2.07-4.516-12.6-4.603-13.794a.733.733 0 01.392-.671.71.71 0 01.758.014c.88.829 8.471 8.119 7.909 12.228a2.71 2.71 0 01-1.665 2.165c-.442.274-.95.424-1.471.434zm-4.383-12.408c.475 3.694 1.642 9.649 3.733 10.906a1.495 1.495 0 001.463.026 1.463 1.463 0 00.916-1.203c.368-2.432-3.532-7.054-6.112-9.729z" fill="#000"/><path d="M291.567 154.706s-30.27 9.129-47.595 6.623c-22.056-3.107-51.042-24.63-51.042-24.63l8.198 69.925s29.26 7.816 50.168 6.973c20.908-.843 42.802-15.868 42.802-15.868l-2.531-43.023z" fill="#5FCF86"/><path d="M222.831 209.887a.698.698 0 01-.667-.554c.004-.271-5.472-27.196-7.516-34.089a.69.69 0 01.056-.518.685.685 0 01.925-.271.68.68 0 01.326.407c2.044 6.919 7.519 33.926 7.514 34.197a.675.675 0 01-.529.803l-.109.025z" fill="#000"/><path d="M156.344 121.814l-.305 16.904s2.649 3.408 11.981 4.334c6.842.774 8.966-2.819 8.966-2.819l-1.404-13.818-16.567-3.957-2.671-.644z" fill="#F5C2A2"/><path d="M156.359 120.812a5.86 5.86 0 00.434 1.525c3.379 7.947 15.727 11.448 19.703 11.872l-.808-7.792-19.329-5.605z" fill="#000"/><path d="M179.83 90.561s7.934 19.897 4.459 30.809c-3.476 10.912-13.438 8.863-19.357 6.534a19.843 19.843 0 01-8.616-6.089 8.427 8.427 0 01-9.229-3.635c-3.587-5.484-1.071-11.265 2.176-12.507a8.804 8.804 0 016.97 1.155l-2.795-5.795s13.548-28.56 26.392-10.472z" fill="#F5C2A2"/><path d="M178.108 115.513l-.217-.004a.68.68 0 01-.444-.902 10.014 10.014 0 00-1.328-7.557.705.705 0 01.207-.945.697.697 0 01.248-.1.69.69 0 01.513.113.668.668 0 01.184.194 11.187 11.187 0 011.441 8.751.704.704 0 01-.604.45zm-23.069.507a.732.732 0 01-.484-.226l-5.097-5.863a.678.678 0 011.018-.876l5.098 5.836a.7.7 0 01.187.491.7.7 0 01-.204.484.728.728 0 01-.518.154z" fill="#000"/><path d="M149.49 114.294a.655.655 0 01-.667-.609.678.678 0 01.583-.748l3.693-.421a.7.7 0 01.494.157.7.7 0 01.253.453.678.678 0 01-.354.67.657.657 0 01-.255.077l-3.693.422-.054-.001zm33.104-14.688l-.217-.004-4.632-1.6a.65.65 0 01-.446-.849.708.708 0 01.875-.417l4.714 1.575a.65.65 0 01.418.847.621.621 0 01-.712.448zm-14.548-.261a.674.674 0 01-.138-1.33l4.19-.955a.65.65 0 01.804.502.677.677 0 01-.502.804l-4.191.982-.163-.003zm12.805 8.305a.71.71 0 01-.641-.527l-.938-3.566a.648.648 0 01.146-.621l1.134-1.28a.687.687 0 01.492-.199.69.69 0 01.484.216.677.677 0 01-.018.948l-.885 1.014.836 3.24a.673.673 0 01-.258.719.667.667 0 01-.245.112l-.107-.056zm-11.415.499a.71.71 0 01-.641-.527l-.939-3.566a.798.798 0 01.012-.651l1.683-1.676a.706.706 0 01.976.017.677.677 0 01-.018.948l-1.326 1.413.836 3.239a.678.678 0 01-.502.831l-.081-.028z" fill="#000"/><path d="M185.366 97.678a48.295 48.295 0 00-9.221-1.087l-3.795.067-1.433-6.177-.121 6.691a19.92 19.92 0 00-9.869 4.808l-2.453-5.22.94 6.521-3.153 3.52-4.608-4.446 3.143-8.994s7.221-9.733 7.764-9.832c.544-.099 10.848-.482 10.848-.482s8.688 3.57 8.9 3.873c.211.301 3.058 10.758 3.058 10.758zm-16.875 46.251a22.624 22.624 0 01-12.868-4.703.651.651 0 01-.146-.924.664.664 0 01.182-.202.692.692 0 01.518-.124.7.7 0 01.253.099c11.878 8.533 20.635 2.214 20.718 2.135a.678.678 0 01.948.017.702.702 0 01-.017.948 16.912 16.912 0 01-9.588 2.754z" fill="#000"/><path d="M156.325 121.463a3.274 3.274 0 01-2.054 2.98 3.277 3.277 0 112.054-2.98z" fill="#F26A2B"/><path d="M244.126 173.851l-.352-.006a2.445 2.445 0 01-1.767-1.224c-1.735-2.958 1.113-10.63 1.454-11.518a.678.678 0 011.273.05c.486 1.608 2.886 9.753.894 12.048a1.88 1.88 0 01-1.502.65zm-.114-10.245c-.834 2.695-1.747 6.743-.827 8.304a1.028 1.028 0 00.803.557.597.597 0 00.627-.179c.804-1.042.174-5.199-.711-8.684l.108.002zm-114.75 68.822a.62.62 0 01-.43-.17.622.622 0 01-.148-.816c1.179-2.282 7.317-13.607 10.543-13.657a1.596 1.596 0 011.448.866c2.312 4.025-8.781 12.09-11.085 13.648a.82.82 0 01-.328.129zm9.996-13.369c-1.381-.025-4.829 4.845-7.907 10.236 4.59-3.575 9.199-8.207 8.148-10.042-.024-.19-.105-.191-.159-.192l-.082-.002zm-86.731 10.064a.734.734 0 01-.634-.512.735.735 0 01-.029-.285l8.633-50.572a.7.7 0 01.77-.555.703.703 0 01.554.796l-8.606 50.545a.706.706 0 01-.688.583zm231.838-25.065a.675.675 0 01-.666-.635l-3.456-45.885a.673.673 0 01.38-.653.67.67 0 01.256-.067.705.705 0 01.72.636l3.456 45.885a.673.673 0 01-.38.653.67.67 0 01-.256.067l-.054-.001zm-108.052-82.154a1.59 1.59 0 01-.487-.009 7.222 7.222 0 00-1.622-.219 4.657 4.657 0 01-2.134-.418 1.438 1.438 0 01-.607-.878 2.204 2.204 0 01.463-1.617 5.414 5.414 0 015.461-.823c1.938.739 1.645 1.98 1.53 2.33a2.852 2.852 0 01-2.604 1.634zm-3.345-2.337a.846.846 0 00-.171.458 3.62 3.62 0 001.487.216 6.8 6.8 0 011.972.307 1.498 1.498 0 001.287-.736c.005-.271-.586-.58-.72-.636a4.12 4.12 0 00-3.855.391zm44.569 352.586a.706.706 0 01-.667-.581l-23.647-191.681a.652.652 0 01.33-.672.66.66 0 01.252-.077.678.678 0 01.748.583l23.648 191.682a.678.678 0 01-.583.748l-.081-.002zm13.115-1.417a.706.706 0 01-.667-.581l-23.216-196.064a.678.678 0 01.583-.748.665.665 0 01.501.148.675.675 0 01.247.462l23.324 196.065a.669.669 0 01-.609.748l-.163-.03zm.198-129.958a.648.648 0 01-.641-.553l-12.766-70.549a.669.669 0 01.107-.52.681.681 0 01.449-.283.68.68 0 01.776.556l12.764 70.684a.644.644 0 01-.108.51.662.662 0 01-.448.266l-.133-.111z" fill="#000"/><path d="M173.705 400.963l-.163-.002a.673.673 0 01-.421-.307.704.704 0 01-.091-.25.695.695 0 01.012-.265c.008-.434 10.009-44.206 12.253-67.958 2.243-23.751 4.627-50.806 4.659-51.077a.653.653 0 01.389-.562l27.497-11.617a.64.64 0 01.525-.012.648.648 0 01.362.38.678.678 0 01-.341.888l-27.141 11.462c-.307 3.463-2.518 28.434-4.598 50.671-2.272 23.832-12.058 67.69-12.282 68.119a.677.677 0 01-.66.53zm-67.088 70.331a.7.7 0 01-.609-.824l37.927-205.639a.665.665 0 01.527-.552.672.672 0 01.268-.003.676.676 0 01.528.795l-37.954 205.666a.703.703 0 01-.687.557z" fill="#000"/></g><path d="M91.222 118.42a32.333 32.333 0 01-23.216 1.951 32.386 32.386 0 01-18.935-14.863c-.029-.106-.118-.196-.17-.296a29.114 29.114 0 01-.907-1.725 32.4 32.4 0 01-2.907-9.39c-.06-.22-.074-.453-.101-.674a31.85 31.85 0 01.036-8.382c.042-.385.1-.768.167-1.153a32.371 32.371 0 014.919-12.434A32.337 32.337 0 0172.13 57.35a32.324 32.324 0 0113.344.736c.613.16 1.217.346 1.815.542a32.383 32.383 0 0115.393 10.94 32.423 32.423 0 016.68 17.671 32.395 32.395 0 01-4.306 18.391 32.34 32.34 0 01-13.826 12.853l-.009-.062z" fill="#FEF7F4" stroke="#5CB3FF" stroke-width="3.867"/><path d="M63.468 101.541a5.544 5.544 0 00-3.308-5.196 5.531 5.531 0 00-7.376 7.091 5.54 5.54 0 005.054 3.516 5.536 5.536 0 005.63-5.411zm34.804-8.711a5.536 5.536 0 00-3.46-5.077 5.524 5.524 0 00-7.496 4.1 5.535 5.535 0 005.483 6.56 5.519 5.519 0 005.073-3.462 5.534 5.534 0 00.4-2.12z" fill="#2F2738"/><path d="M99.655 84.741l1.634 6.661.084.309.199.735-4.251 1.043-10.227 2.507-8.268 2.023-2.418.593-1.915.472-.184.05-1.204.327-.191.052-1.572.426-.316.086-2.403.589-2.633.644-3.467.854-10.262 2.437-1.293.351c-.14-.23-.282-.46-.405-.68-.028-.103-.114-.19-.164-.286a28.228 28.228 0 01-.88-1.672 31.408 31.408 0 01-2.817-9.103c-.058-.213-.072-.439-.098-.652a30.873 30.873 0 01.035-8.125c.04-.374.097-.745.162-1.117l23.004-5.643a7.94 7.94 0 014.019.078l-16.266 3.995 8.535 4.686 20.444-5.02 7.347-.303a7.31 7.31 0 012.879.466c.52.197 1.016.454 1.478.767l-.603.163.174.64.47 1.933.132.082 1.24-.368z" fill="#5CB3FF"/><path d="M84.116 95.668l15.527-3.81-2.612-2.45-11.09 2.726-1.825 3.534z" fill="#2F2738"/><path d="M80.07 95.218l.35 1.286 20.896-5.126.084.31-21.207 5.201-.435-1.602.312-.07z" fill="#2F2738"/><path d="M79.609 94.711l3.912-.959-.254-.934-3.911.96.253.933z" fill="#EFFAF3"/><path d="M97.883 82.988l.51 2.056-2.22 2.308-11.09 2.725-3.038-1.022-.505-2.066 16.343-4z" fill="#2F2738"/><path d="M74.441 88.07l.17.625 3.366 1.36 4.08-1.005 1.53-2.561 12.266-3.013 2.395 1.473.142.088 1.256-.341-.422-1.701a6.806 6.806 0 00-1.006-.8L74.44 88.07z" fill="#fff"/><path d="M86.544 81.297L66.098 86.31l-8.535-4.686 16.268-3.988 12.713 3.662z" fill="#2F2738"/><path d="M86.54 81.296l-12.712-3.655 12.711 3.655z" fill="#2F2738"/><path d="M62.574 88.538l.17.625-16.037 3.942c-.058-.214-.072-.439-.098-.653l15.965-3.914z" fill="#fff"/><path d="M63.96 86.834l-1.381 1.685-15.985 3.928a30.873 30.873 0 01.035-8.125l7.866-1.937a2.458 2.458 0 011.75.228l7.714 4.221z" fill="#2F2738"/><path d="M57.442 86.738l1.554-.374 2.538 1.419-5.545 1.362a2.005 2.005 0 011.453-2.407z" fill="#5CB3FF"/><path d="M52.097 94.166l2.486-.604-.155-.573-2.487.603.156.574z" fill="#2F2738"/><path d="M55.015 100.747l9.946-2.439-.254-.934-9.945 2.439.253.934zm12.16-9.134l2.264-.552-.405-1.666-2.27.553.412 1.665z" fill="#EFFAF3"/><path d="M78.648 96.327a5.533 5.533 0 01-3.237 6.431 5.524 5.524 0 01-6.845-2.226 2.705 2.705 0 01-.143-.238 5.263 5.263 0 01-.22-.461l-5.73 1.405-10.59 2.621-1.323.359c-.028-.103-.115-.19-.165-.287l1.367-.371.734-.199-.817-3.33-1.664-6.772.316-.086 1.544 6.3.937 3.802 9.611-2.363 5.657-1.385-.157-.581a5.537 5.537 0 012.098-5.777 5.523 5.523 0 017.727 1.19c.43.587.74 1.251.912 1.957l-.012.011z" fill="#2F2738"/><path d="M74.964 94.842a3.264 3.264 0 00-4.481 1.098 3.193 3.193 0 00-.465 1.862l.265-.071c-.006-.142 0-.283.019-.424.009-.097.025-.194.047-.29a.427.427 0 01.033-.142c.016-.08.04-.157.07-.233l1.229.749-1.374.372c.007.206.033.41.079.61.055.202.124.4.208.591l1.373-.372-.3.492-.441.727.05.042c.29.264.63.467.999.597l.128-.224.16-.256.31-.511.148-.238.052.192.326 1.198a3.655 3.655 0 01-.544-.026l-.14-.025-.136-.034-.258-.08-.136.226a3.25 3.25 0 004.245-2.084 3.263 3.263 0 00-1.466-3.746zm.369.603c.08.077.154.16.224.246a.41.41 0 01.059.071c.012.044.06.079.085.111.06.07.11.146.149.228l.127.234-1.381.375.737-1.265zm-2.147-.791c.08-.022.166.002.253.002.097 0 .194.007.29.024l.124.021c.11.018.219.046.323.086a.16.16 0 01.102.028l-.745 1.236-.347-1.398zm-2.11.943l.081-.077.102-.091c.155-.137.323-.259.5-.365l.212-.12.377 1.39-1.272-.737zm4.378 4.101l-.076.068-.102.09-.147.128-.106.076-.255.164-.204.118-.327-1.206-.05-.183.228.143 1.039.602zm.801-2.104a.982.982 0 01-.007.207c-.002.09-.01.178-.022.267-.015.09-.04.176-.049.258l-.088.284-1.236-.746 1.389-.377s.031.086.035.101l-.022.006z" fill="#B8AFC4"/><path d="M73.038 96.639a1.027 1.027 0 11-.753 1.238 1.036 1.036 0 01.753-1.238z" fill="#2F2738"/><path d="M73.18 97.239a.419.419 0 01.456.618.41.41 0 01-.252.188.418.418 0 01-.431-.6.42.42 0 01.213-.202l.015-.004z" fill="#B8AFC4"/><path d="M70.104 98.413a3.225 3.225 0 001.487 2.02c.176.107.362.196.554.268l.141-.235a3.06 3.06 0 01-1.05-.647l-.067-.069a1.608 1.608 0 01-.185-.218l-.182-.234a3.636 3.636 0 01-.218-.368 2.845 2.845 0 01-.164-.602 2.736 2.736 0 01-.088-.616l-.264.072a2.61 2.61 0 00.036.63z" fill="#fff"/><path d="M273.253 128.666c11.087 0 20.074-8.987 20.074-20.074 0-11.086-8.987-20.074-20.074-20.074-11.086 0-20.073 8.988-20.073 20.074 0 11.087 8.987 20.074 20.073 20.074z" fill="#F26A2B"/><path d="M265.464 113.167l3.1 4.339c2.829 3.968 8.408 4.903 12.376 2.074l.856-.608c3.968-2.829 4.903-8.409 2.074-12.376l-3.099-4.339a2.055 2.055 0 00-2.863-.485l-11.959 8.532a2.036 2.036 0 00-.485 2.863zm2.118-5.545l-2.085-2.919a4.477 4.477 0 117.292-5.196l2.086 2.919 2.006-1.431-2.074-2.92c-2.22-3.122-6.571-3.843-9.693-1.623-3.122 2.22-3.844 6.571-1.623 9.694l2.085 2.919 2.006-1.443z" fill="#fff"/><path d="M276.981 109.47a2.095 2.095 0 00-2.93-.485 2.095 2.095 0 00-.485 2.93 2.108 2.108 0 002.164.834l1.048 1.466c.26.36.778.451 1.139.191a.823.823 0 00.191-1.138l-1.048-1.465a2.115 2.115 0 00-.079-2.333z" fill="#F26A2B"/><defs><clipPath id="clip0_1871_90171"><path fill="#fff" transform="rotate(1.031 -3353.886 344.009)" d="M0 0h335.768v263.305H0z"/></clipPath></defs></svg>